<mxfile host="app.diagrams.net" modified="2022-12-24T06:25:12.789Z" agent="5.0 (Macintosh; Intel Mac OS X 10_15_7) AppleWebKit/537.36 (KHTML, like Gecko) Chrome/108.0.0.0 Safari/537.36" etag="rnO6CrmPEcGuHuC8Ledd" version="20.7.4" type="github">
  <diagram id="Cd5y1kNHd57_tZJnAyKG" name="Page-1">
    <mxGraphModel dx="1050" dy="509" grid="1" gridSize="10" guides="1" tooltips="1" connect="1" arrows="1" fold="1" page="1" pageScale="1" pageWidth="827" pageHeight="1169" math="0" shadow="0">
      <root>
        <mxCell id="0" />
        <mxCell id="1" parent="0" />
        <mxCell id="FE19WrhtxEeYcqXIJ0xn-2" value="AWS Cloud" style="sketch=0;outlineConnect=0;gradientColor=none;html=1;whiteSpace=wrap;fontSize=12;fontStyle=0;shape=mxgraph.aws4.group;grIcon=mxgraph.aws4.group_aws_cloud;strokeColor=#858B94;fillColor=none;verticalAlign=top;align=left;spacingLeft=30;fontColor=#858B94;dashed=0;" parent="1" vertex="1">
          <mxGeometry x="60" y="90" width="900" height="550" as="geometry" />
        </mxCell>
        <mxCell id="ygeJwO_-llUcF5Xlst-1-10" value="" style="rounded=0;whiteSpace=wrap;html=1;" vertex="1" parent="1">
          <mxGeometry x="290" y="140" width="400" height="460" as="geometry" />
        </mxCell>
        <mxCell id="ygeJwO_-llUcF5Xlst-1-15" value="" style="rounded=0;whiteSpace=wrap;html=1;" vertex="1" parent="1">
          <mxGeometry x="770" y="140" width="170" height="460" as="geometry" />
        </mxCell>
        <mxCell id="ygeJwO_-llUcF5Xlst-1-8" value="" style="rounded=0;whiteSpace=wrap;html=1;" vertex="1" parent="1">
          <mxGeometry x="70" y="140" width="190" height="460" as="geometry" />
        </mxCell>
        <mxCell id="ygeJwO_-llUcF5Xlst-1-38" style="edgeStyle=orthogonalEdgeStyle;curved=1;orthogonalLoop=1;jettySize=auto;html=1;exitX=1;exitY=0.5;exitDx=0;exitDy=0;exitPerimeter=0;entryX=0;entryY=0.5;entryDx=0;entryDy=0;" edge="1" parent="1" source="KQLKy6pS23xvt4txy2rW-2" target="ygeJwO_-llUcF5Xlst-1-36">
          <mxGeometry relative="1" as="geometry" />
        </mxCell>
        <mxCell id="KQLKy6pS23xvt4txy2rW-2" value="Amazon RDS" style="sketch=0;points=[[0,0,0],[0.25,0,0],[0.5,0,0],[0.75,0,0],[1,0,0],[0,1,0],[0.25,1,0],[0.5,1,0],[0.75,1,0],[1,1,0],[0,0.25,0],[0,0.5,0],[0,0.75,0],[1,0.25,0],[1,0.5,0],[1,0.75,0]];outlineConnect=0;fontColor=#232F3E;gradientColor=#4D72F3;gradientDirection=north;fillColor=#3334B9;strokeColor=#ffffff;dashed=0;verticalLabelPosition=bottom;verticalAlign=top;align=center;html=1;fontSize=12;fontStyle=0;aspect=fixed;shape=mxgraph.aws4.resourceIcon;resIcon=mxgraph.aws4.rds;" parent="1" vertex="1">
          <mxGeometry x="80" y="331" width="78" height="78" as="geometry" />
        </mxCell>
        <mxCell id="rGtyrS7ArSFbjT5xo-QV-2" value="Amazon Athena" style="sketch=0;points=[[0,0,0],[0.25,0,0],[0.5,0,0],[0.75,0,0],[1,0,0],[0,1,0],[0.25,1,0],[0.5,1,0],[0.75,1,0],[1,1,0],[0,0.25,0],[0,0.5,0],[0,0.75,0],[1,0.25,0],[1,0.5,0],[1,0.75,0]];outlineConnect=0;fontColor=#232F3E;gradientColor=#945DF2;gradientDirection=north;fillColor=#5A30B5;strokeColor=#ffffff;dashed=0;verticalLabelPosition=bottom;verticalAlign=top;align=center;html=1;fontSize=12;fontStyle=0;aspect=fixed;shape=mxgraph.aws4.resourceIcon;resIcon=mxgraph.aws4.athena;" parent="1" vertex="1">
          <mxGeometry x="816" y="210" width="78" height="78" as="geometry" />
        </mxCell>
        <mxCell id="ygeJwO_-llUcF5Xlst-1-1" value="Amazon EMR&lt;br&gt;Trino" style="sketch=0;points=[[0,0,0],[0.25,0,0],[0.5,0,0],[0.75,0,0],[1,0,0],[0,1,0],[0.25,1,0],[0.5,1,0],[0.75,1,0],[1,1,0],[0,0.25,0],[0,0.5,0],[0,0.75,0],[1,0.25,0],[1,0.5,0],[1,0.75,0]];outlineConnect=0;fontColor=#232F3E;gradientColor=#945DF2;gradientDirection=north;fillColor=#5A30B5;strokeColor=#ffffff;dashed=0;verticalLabelPosition=bottom;verticalAlign=top;align=center;html=1;fontSize=12;fontStyle=0;aspect=fixed;shape=mxgraph.aws4.resourceIcon;resIcon=mxgraph.aws4.emr;" vertex="1" parent="1">
          <mxGeometry x="827" y="428.13" width="78" height="78" as="geometry" />
        </mxCell>
        <mxCell id="ygeJwO_-llUcF5Xlst-1-9" value="Ingestion" style="rounded=1;whiteSpace=wrap;html=1;fillColor=#99CCFF;" vertex="1" parent="1">
          <mxGeometry x="70" y="140" width="190" height="40" as="geometry" />
        </mxCell>
        <mxCell id="ygeJwO_-llUcF5Xlst-1-14" value="Processing" style="rounded=1;whiteSpace=wrap;html=1;fillColor=#99CCFF;" vertex="1" parent="1">
          <mxGeometry x="290" y="140" width="400" height="40" as="geometry" />
        </mxCell>
        <mxCell id="ygeJwO_-llUcF5Xlst-1-29" style="edgeStyle=orthogonalEdgeStyle;curved=1;orthogonalLoop=1;jettySize=auto;html=1;entryX=0;entryY=0.25;entryDx=0;entryDy=0;entryPerimeter=0;dashed=1;" edge="1" parent="1" source="DkJPr1J9yXdr6lBRk-ze-1" target="rGtyrS7ArSFbjT5xo-QV-2">
          <mxGeometry relative="1" as="geometry" />
        </mxCell>
        <mxCell id="ygeJwO_-llUcF5Xlst-1-30" value="metadata" style="edgeLabel;html=1;align=center;verticalAlign=middle;resizable=0;points=[];" vertex="1" connectable="0" parent="ygeJwO_-llUcF5Xlst-1-29">
          <mxGeometry x="0.2327" y="-6" relative="1" as="geometry">
            <mxPoint y="1" as="offset" />
          </mxGeometry>
        </mxCell>
        <mxCell id="ygeJwO_-llUcF5Xlst-1-46" style="edgeStyle=orthogonalEdgeStyle;curved=1;orthogonalLoop=1;jettySize=auto;html=1;entryX=0;entryY=0.25;entryDx=0;entryDy=0;entryPerimeter=0;dashed=1;" edge="1" parent="1" source="DkJPr1J9yXdr6lBRk-ze-1" target="ygeJwO_-llUcF5Xlst-1-1">
          <mxGeometry relative="1" as="geometry" />
        </mxCell>
        <mxCell id="ygeJwO_-llUcF5Xlst-1-55" value="metadata" style="edgeLabel;html=1;align=center;verticalAlign=middle;resizable=0;points=[];" vertex="1" connectable="0" parent="ygeJwO_-llUcF5Xlst-1-46">
          <mxGeometry x="-0.1131" y="1" relative="1" as="geometry">
            <mxPoint x="-35" y="-41" as="offset" />
          </mxGeometry>
        </mxCell>
        <mxCell id="DkJPr1J9yXdr6lBRk-ze-1" value="AWS Glue &lt;br&gt;Data Catalog" style="sketch=0;outlineConnect=0;fontColor=#232F3E;gradientColor=none;fillColor=#4D27AA;strokeColor=none;dashed=0;verticalLabelPosition=bottom;verticalAlign=top;align=center;html=1;fontSize=12;fontStyle=0;aspect=fixed;pointerEvents=1;shape=mxgraph.aws4.glue_data_catalog;" parent="1" vertex="1">
          <mxGeometry x="610" y="228" width="72" height="78" as="geometry" />
        </mxCell>
        <mxCell id="ygeJwO_-llUcF5Xlst-1-43" value="" style="rounded=0;whiteSpace=wrap;html=1;fillColor=#99CCFF;" vertex="1" parent="1">
          <mxGeometry x="300" y="220" width="240" height="330" as="geometry" />
        </mxCell>
        <mxCell id="ygeJwO_-llUcF5Xlst-1-56" style="edgeStyle=orthogonalEdgeStyle;curved=1;orthogonalLoop=1;jettySize=auto;html=1;entryX=0;entryY=0.75;entryDx=0;entryDy=0;entryPerimeter=0;" edge="1" parent="1" source="nCzQVOr3wxltccUAzvmY-3" target="rGtyrS7ArSFbjT5xo-QV-2">
          <mxGeometry relative="1" as="geometry">
            <Array as="points">
              <mxPoint x="780" y="460" />
              <mxPoint x="780" y="269" />
            </Array>
          </mxGeometry>
        </mxCell>
        <mxCell id="ygeJwO_-llUcF5Xlst-1-57" value="data" style="edgeLabel;html=1;align=center;verticalAlign=middle;resizable=0;points=[];" vertex="1" connectable="0" parent="ygeJwO_-llUcF5Xlst-1-56">
          <mxGeometry x="-0.7539" y="12" relative="1" as="geometry">
            <mxPoint x="8" y="-39" as="offset" />
          </mxGeometry>
        </mxCell>
        <mxCell id="ygeJwO_-llUcF5Xlst-1-58" style="edgeStyle=orthogonalEdgeStyle;curved=1;orthogonalLoop=1;jettySize=auto;html=1;entryX=0;entryY=0.75;entryDx=0;entryDy=0;entryPerimeter=0;" edge="1" parent="1" source="nCzQVOr3wxltccUAzvmY-3" target="ygeJwO_-llUcF5Xlst-1-1">
          <mxGeometry relative="1" as="geometry" />
        </mxCell>
        <mxCell id="ygeJwO_-llUcF5Xlst-1-59" value="data" style="edgeLabel;html=1;align=center;verticalAlign=middle;resizable=0;points=[];" vertex="1" connectable="0" parent="ygeJwO_-llUcF5Xlst-1-58">
          <mxGeometry x="-0.5581" y="-2" relative="1" as="geometry">
            <mxPoint x="20" y="18" as="offset" />
          </mxGeometry>
        </mxCell>
        <mxCell id="nCzQVOr3wxltccUAzvmY-3" value="Amazon S3" style="outlineConnect=0;dashed=0;verticalLabelPosition=bottom;verticalAlign=top;align=center;html=1;shape=mxgraph.aws3.s3;fillColor=#E05243;gradientColor=none;" parent="1" vertex="1">
          <mxGeometry x="605.5" y="413.13" width="76.5" height="93" as="geometry" />
        </mxCell>
        <mxCell id="ygeJwO_-llUcF5Xlst-1-28" value="Consumption" style="rounded=1;whiteSpace=wrap;html=1;fillColor=#99CCFF;" vertex="1" parent="1">
          <mxGeometry x="770" y="140" width="170" height="40" as="geometry" />
        </mxCell>
        <mxCell id="ygeJwO_-llUcF5Xlst-1-47" style="edgeStyle=orthogonalEdgeStyle;curved=1;orthogonalLoop=1;jettySize=auto;html=1;" edge="1" parent="1" source="ygeJwO_-llUcF5Xlst-1-36" target="ygeJwO_-llUcF5Xlst-1-39">
          <mxGeometry relative="1" as="geometry" />
        </mxCell>
        <mxCell id="ygeJwO_-llUcF5Xlst-1-36" value="binlog" style="rounded=0;whiteSpace=wrap;html=1;fillColor=#99CCFF;" vertex="1" parent="1">
          <mxGeometry x="190" y="351.75" width="60" height="36.5" as="geometry" />
        </mxCell>
        <mxCell id="ygeJwO_-llUcF5Xlst-1-52" style="edgeStyle=orthogonalEdgeStyle;curved=1;orthogonalLoop=1;jettySize=auto;html=1;entryX=0;entryY=0.5;entryDx=0;entryDy=0;dashed=1;" edge="1" parent="1" source="ygeJwO_-llUcF5Xlst-1-39" target="ygeJwO_-llUcF5Xlst-1-44">
          <mxGeometry relative="1" as="geometry" />
        </mxCell>
        <mxCell id="ygeJwO_-llUcF5Xlst-1-53" style="edgeStyle=orthogonalEdgeStyle;curved=1;orthogonalLoop=1;jettySize=auto;html=1;entryX=0;entryY=0.5;entryDx=0;entryDy=0;" edge="1" parent="1" source="ygeJwO_-llUcF5Xlst-1-39" target="ygeJwO_-llUcF5Xlst-1-45">
          <mxGeometry relative="1" as="geometry" />
        </mxCell>
        <mxCell id="ygeJwO_-llUcF5Xlst-1-39" value="Flink CDC" style="rounded=0;whiteSpace=wrap;html=1;fillColor=#d0cee2;strokeColor=#56517e;" vertex="1" parent="1">
          <mxGeometry x="310" y="347" width="70" height="46" as="geometry" />
        </mxCell>
        <mxCell id="KQLKy6pS23xvt4txy2rW-3" value="Amazon EMR &lt;br&gt;Flink" style="sketch=0;points=[[0,0,0],[0.25,0,0],[0.5,0,0],[0.75,0,0],[1,0,0],[0,1,0],[0.25,1,0],[0.5,1,0],[0.75,1,0],[1,1,0],[0,0.25,0],[0,0.5,0],[0,0.75,0],[1,0.25,0],[1,0.5,0],[1,0.75,0]];outlineConnect=0;fontColor=#232F3E;gradientColor=#945DF2;gradientDirection=north;fillColor=#5A30B5;strokeColor=#ffffff;dashed=0;verticalLabelPosition=bottom;verticalAlign=top;align=center;html=1;fontSize=12;fontStyle=0;aspect=fixed;shape=mxgraph.aws4.resourceIcon;resIcon=mxgraph.aws4.emr;" parent="1" vertex="1">
          <mxGeometry x="300" y="220" width="78" height="78" as="geometry" />
        </mxCell>
        <mxCell id="nCzQVOr3wxltccUAzvmY-5" style="edgeStyle=orthogonalEdgeStyle;curved=1;orthogonalLoop=1;jettySize=auto;html=1;entryX=0;entryY=0.5;entryDx=0;entryDy=0;entryPerimeter=0;strokeColor=default;" parent="1" source="ygeJwO_-llUcF5Xlst-1-45" target="nCzQVOr3wxltccUAzvmY-3" edge="1">
          <mxGeometry relative="1" as="geometry" />
        </mxCell>
        <mxCell id="nCzQVOr3wxltccUAzvmY-9" value="data" style="edgeLabel;html=1;align=center;verticalAlign=middle;resizable=0;points=[];" parent="nCzQVOr3wxltccUAzvmY-5" vertex="1" connectable="0">
          <mxGeometry x="-0.219" y="-4" relative="1" as="geometry">
            <mxPoint x="16" y="6" as="offset" />
          </mxGeometry>
        </mxCell>
        <mxCell id="ygeJwO_-llUcF5Xlst-1-48" style="edgeStyle=orthogonalEdgeStyle;curved=1;orthogonalLoop=1;jettySize=auto;html=1;exitX=1;exitY=0.25;exitDx=0;exitDy=0;dashed=1;" edge="1" parent="1" source="ygeJwO_-llUcF5Xlst-1-44" target="DkJPr1J9yXdr6lBRk-ze-1">
          <mxGeometry relative="1" as="geometry" />
        </mxCell>
        <mxCell id="ygeJwO_-llUcF5Xlst-1-54" value="metadata" style="edgeLabel;html=1;align=center;verticalAlign=middle;resizable=0;points=[];" vertex="1" connectable="0" parent="ygeJwO_-llUcF5Xlst-1-48">
          <mxGeometry x="0.032" relative="1" as="geometry">
            <mxPoint y="13" as="offset" />
          </mxGeometry>
        </mxCell>
        <mxCell id="ygeJwO_-llUcF5Xlst-1-44" value="Glue Data Catalog Client for Hive Metastore" style="rounded=0;whiteSpace=wrap;html=1;fillColor=#d5e8d4;strokeColor=#82b366;" vertex="1" parent="1">
          <mxGeometry x="420" y="250" width="100" height="70" as="geometry" />
        </mxCell>
        <mxCell id="ygeJwO_-llUcF5Xlst-1-60" value="metadata" style="edgeStyle=orthogonalEdgeStyle;curved=1;orthogonalLoop=1;jettySize=auto;html=1;exitX=0.5;exitY=0;exitDx=0;exitDy=0;entryX=0.5;entryY=1;entryDx=0;entryDy=0;dashed=1;" edge="1" parent="1" source="ygeJwO_-llUcF5Xlst-1-45" target="ygeJwO_-llUcF5Xlst-1-44">
          <mxGeometry relative="1" as="geometry" />
        </mxCell>
        <mxCell id="ygeJwO_-llUcF5Xlst-1-45" value="Flink Table/SQL Connector" style="rounded=0;whiteSpace=wrap;html=1;fillColor=#1ba1e2;fontColor=#ffffff;strokeColor=#006EAF;" vertex="1" parent="1">
          <mxGeometry x="420" y="430" width="100" height="59.25" as="geometry" />
        </mxCell>
      </root>
    </mxGraphModel>
  </diagram>
</mxfile>
